<svg width="209" height="14" viewBox="0 0 209 14" fill="none" xmlns="http://www.w3.org/2000/svg">
<path d="M3.99998 3H204.982C204.982 3 204.772 5.43769 204.772 7C204.772 8.5623 205 11 205 11H4.00005C4.19067 9 4.23111 8.56561 4.22899 7C4.22686 5.43388 4.19067 5 3.99998 3Z" fill="#FFE6EF"/>
<g filter="url(#filter0_d)">
<path d="M3.99998 4H204.982C204.982 4 204.772 5.82827 204.772 7C204.772 8.17173 205 10 205 10H4.00005C4.19067 8.5 4.23111 8.17421 4.22899 7C4.22686 5.82541 4.19067 5.5 3.99998 4Z" fill="#FF4A8B"/>
</g>
<defs>
<filter id="filter0_d" x="-3.05176e-05" y="0" width="209" height="14" filterUnits="userSpaceOnUse" color-interpolation-filters="sRGB">
<feFlood flood-opacity="0" result="BackgroundImageFix"/>
<feColorMatrix in="SourceAlpha" type="matrix" values="0 0 0 0 0 0 0 0 0 0 0 0 0 0 0 0 0 0 127 0"/>
<feOffset/>
<feGaussianBlur stdDeviation="2"/>
<feColorMatrix type="matrix" values="0 0 0 0 1 0 0 0 0 0.291667 0 0 0 0 0.546667 0 0 0 0.7 0"/>
<feBlend mode="normal" in2="BackgroundImageFix" result="effect1_dropShadow"/>
<feBlend mode="normal" in="SourceGraphic" in2="effect1_dropShadow" result="shape"/>
</filter>
</defs>
</svg>
