<svg width="32" height="32" viewBox="0 0 32 32" fill="none" xmlns="http://www.w3.org/2000/svg">
<g id="room_24px">
<path id="icon/action/room_24px" fill-rule="evenodd" clip-rule="evenodd" d="M16 2.66675C10.84 2.66675 6.66663 6.84008 6.66663 12.0001C6.66663 19.0001 16 29.3334 16 29.3334C16 29.3334 25.3333 19.0001 25.3333 12.0001C25.3333 6.84008 21.16 2.66675 16 2.66675ZM9.33329 12.0001C9.33329 8.32008 12.32 5.33341 16 5.33341C19.68 5.33341 22.6666 8.32008 22.6666 12.0001C22.6666 15.8401 18.8266 21.5867 16 25.1734C13.2266 21.6134 9.33329 15.8001 9.33329 12.0001ZM12.6666 12.0001C12.6666 10.1591 14.159 8.66675 16 8.66675C17.1908 8.66675 18.2913 9.30208 18.8867 10.3334C19.4822 11.3648 19.4822 12.6354 18.8867 13.6667C18.2913 14.6981 17.1908 15.3334 16 15.3334C14.159 15.3334 12.6666 13.841 12.6666 12.0001Z" fill="#C9C9C9"/>
</g>
</svg>
